<svg width="537" height="536" viewBox="0 0 537 536" fill="none" xmlns="http://www.w3.org/2000/svg">
<path d="M268.449 536C416.462 536 536.449 416.012 536.449 268C536.449 119.988 416.462 0 268.449 0C120.437 0 0.449219 119.988 0.449219 268C0.449219 416.012 120.437 536 268.449 536Z" fill="#FFBA49"/>
<mask id="mask0_2607_229" style="mask-type:luminance" maskUnits="userSpaceOnUse" x="0" y="0" width="537" height="536">
<path d="M268.449 536C416.462 536 536.449 416.012 536.449 268C536.449 119.988 416.462 0 268.449 0C120.437 0 0.449219 119.988 0.449219 268C0.449219 416.012 120.437 536 268.449 536Z" fill="white"/>
</mask>
<g mask="url(#mask0_2607_229)">
<path d="M151.099 300.93C168.844 300.93 183.229 286.545 183.229 268.8C183.229 251.055 168.844 236.67 151.099 236.67C133.354 236.67 118.969 251.055 118.969 268.8C118.969 286.545 133.354 300.93 151.099 300.93Z" fill="#E0AC5A"/>
<path d="M151.099 359.42C168.844 359.42 183.229 345.035 183.229 327.29C183.229 309.545 168.844 295.16 151.099 295.16C133.354 295.16 118.969 309.545 118.969 327.29C118.969 345.035 133.354 359.42 151.099 359.42Z" fill="#E0AC5A"/>
<path d="M151.099 417.91C168.844 417.91 183.229 403.525 183.229 385.78C183.229 368.035 168.844 353.65 151.099 353.65C133.354 353.65 118.969 368.035 118.969 385.78C118.969 403.525 133.354 417.91 151.099 417.91Z" fill="#E0AC5A"/>
<path d="M151.099 476.4C168.844 476.4 183.229 462.015 183.229 444.27C183.229 426.525 168.844 412.14 151.099 412.14C133.354 412.14 118.969 426.525 118.969 444.27C118.969 462.015 133.354 476.4 151.099 476.4Z" fill="#E0AC5A"/>
<path d="M150.89 534.89C168.635 534.89 183.02 520.505 183.02 502.76C183.02 485.015 168.635 470.63 150.89 470.63C133.145 470.63 118.76 485.015 118.76 502.76C118.76 520.505 133.145 534.89 150.89 534.89Z" fill="#E0AC5A"/>
<path d="M150.89 593.38C168.635 593.38 183.02 578.995 183.02 561.25C183.02 543.505 168.635 529.12 150.89 529.12C133.145 529.12 118.76 543.505 118.76 561.25C118.76 578.995 133.145 593.38 150.89 593.38Z" fill="#E0AC5A"/>
<path d="M369.219 341.68H398.219V252.68C398.219 251.4 398.189 250.12 398.139 248.84C398.139 248.66 398.129 248.47 398.119 248.29C398.069 247.09 398.009 245.9 397.929 244.71C397.929 244.62 397.919 244.53 397.909 244.44C397.729 241.83 397.459 239.23 397.109 236.67C397.089 236.53 397.069 236.4 397.049 236.26C396.889 235.1 396.709 233.95 396.519 232.81C396.499 232.68 396.479 232.55 396.449 232.42C396.009 229.87 395.499 227.35 394.909 224.85C394.899 224.8 394.889 224.76 394.879 224.71C394.599 223.53 394.299 222.36 393.989 221.2C393.949 221.07 393.919 220.94 393.879 220.81C392.869 217.13 391.699 213.52 390.369 209.98C390.329 209.89 390.299 209.79 390.259 209.7C389.819 208.55 389.369 207.41 388.899 206.28C388.899 206.26 388.889 206.25 388.879 206.23C387.899 203.86 386.839 201.53 385.709 199.24C385.699 199.21 385.679 199.19 385.669 199.16C385.119 198.05 384.559 196.94 383.979 195.85C383.959 195.81 383.939 195.78 383.919 195.74C382.129 192.37 380.179 189.1 378.099 185.92C378.079 185.9 378.069 185.87 378.049 185.85C366.959 169.03 351.829 155.11 334.059 145.46L338.189 131.06C347.279 128.68 354.909 121.71 357.689 112.03C361.879 97.4299 353.439 82.1999 338.839 78.0099C324.239 73.8199 309.009 82.2599 304.819 96.8599C302.039 106.54 304.819 116.5 311.269 123.33L307.929 134.96C302.249 133.41 296.409 132.26 290.429 131.54C290.359 131.54 290.279 131.52 290.209 131.51C288.669 131.33 287.129 131.17 285.579 131.05C285.549 131.05 285.529 131.05 285.499 131.05C284.019 130.93 282.529 130.85 281.029 130.78C280.739 130.77 280.449 130.76 280.149 130.75C278.669 130.7 277.189 130.66 275.699 130.66C274.439 130.66 273.189 130.69 271.939 130.72C271.579 130.73 271.229 130.75 270.879 130.76C269.929 130.8 268.989 130.84 268.049 130.9C267.719 130.92 267.389 130.94 267.059 130.96C264.509 131.14 261.969 131.39 259.469 131.73C259.349 131.75 259.229 131.76 259.119 131.78C257.939 131.94 256.759 132.12 255.589 132.31C255.459 132.33 255.329 132.35 255.199 132.37C249.289 133.37 243.529 134.8 237.939 136.61L234.129 123.32C240.579 116.49 243.359 106.53 240.579 96.8499C236.389 82.2499 221.159 73.8099 206.559 77.9999C191.959 82.1899 183.519 97.4199 187.709 112.02C190.489 121.7 198.119 128.67 207.209 131.05L212.189 148.41C207.059 151.53 202.169 154.99 197.569 158.81C197.509 158.86 197.459 158.91 197.399 158.95C196.629 159.59 195.869 160.24 195.119 160.89C194.939 161.05 194.759 161.21 194.589 161.36C193.959 161.92 193.329 162.48 192.719 163.05C192.509 163.24 192.309 163.43 192.099 163.63C191.509 164.18 190.919 164.74 190.339 165.31C190.139 165.51 189.939 165.7 189.739 165.9C189.139 166.49 188.539 167.1 187.949 167.7C187.789 167.86 187.629 168.03 187.469 168.19C186.769 168.92 186.079 169.65 185.399 170.39C185.359 170.44 185.319 170.48 185.269 170.52C183.769 172.16 182.309 173.85 180.899 175.57C180.829 175.65 180.759 175.74 180.699 175.82C180.089 176.57 179.489 177.33 178.889 178.09C178.759 178.26 178.619 178.44 178.489 178.61C177.959 179.3 177.439 180 176.919 180.7C176.779 180.9 176.629 181.09 176.489 181.29C175.979 182 175.469 182.71 174.979 183.43C174.859 183.61 174.729 183.79 174.609 183.97C174.069 184.76 173.539 185.56 173.009 186.36C172.939 186.46 172.879 186.56 172.809 186.66C170.999 189.46 169.299 192.34 167.709 195.29C167.649 195.4 167.589 195.52 167.529 195.64C167.079 196.49 166.629 197.35 166.199 198.21C166.109 198.39 166.019 198.57 165.929 198.75C165.519 199.57 165.129 200.39 164.739 201.22C164.649 201.41 164.569 201.59 164.479 201.78C164.079 202.64 163.689 203.51 163.309 204.38C163.249 204.52 163.189 204.66 163.129 204.79C161.359 208.91 159.809 213.14 158.489 217.48C158.449 217.63 158.399 217.77 158.359 217.92C158.079 218.85 157.819 219.78 157.559 220.71C157.509 220.9 157.459 221.08 157.409 221.27C157.159 222.19 156.929 223.11 156.699 224.04C156.659 224.21 156.609 224.39 156.569 224.56C156.329 225.57 156.099 226.58 155.889 227.59C155.869 227.67 155.849 227.75 155.839 227.84C155.129 231.24 154.549 234.68 154.129 238.18C154.119 238.27 154.109 238.36 154.099 238.44C153.979 239.48 153.859 240.53 153.769 241.58C153.749 241.76 153.739 241.95 153.719 242.13C153.629 243.1 153.559 244.08 153.489 245.06C153.479 245.26 153.459 245.47 153.449 245.67C153.389 246.67 153.339 247.67 153.309 248.68C153.309 248.84 153.299 249 153.289 249.16C153.249 250.32 153.229 251.47 153.229 252.64V552.64H369.229V341.64L369.219 341.68Z" fill="#FEE66A"/>
<path d="M384.419 147.3C411.819 129.33 453.609 125.5 460.149 139.84C466.689 154.18 452.689 198 419.289 219.91C391.889 237.88 370.719 236.77 344.159 230.27C342.869 197.82 351.019 169.21 384.419 147.3Z" fill="#FEE66A"/>
<path d="M159.009 143.1C128.289 125.13 82.7392 123.29 76.4392 139.21C70.3892 154.51 87.7592 201.89 125.209 223.8C155.929 241.77 178.839 239.4 207.289 230.87C206.889 195.6 196.459 165.01 159.009 143.1Z" fill="#FEE66A"/>
<path d="M343.599 223.68C338.839 223.68 334.979 227.54 334.979 232.3V244.51H334.989C335.139 249.14 338.929 252.84 343.599 252.84C348.269 252.84 352.049 249.13 352.209 244.51H352.219V232.3C352.219 227.54 348.359 223.68 343.599 223.68Z" fill="#321111"/>
<path d="M278.839 223.68C274.079 223.68 270.219 227.54 270.219 232.3V244.51H270.229C270.379 249.14 274.169 252.84 278.839 252.84C283.509 252.84 287.289 249.13 287.449 244.51H287.459V232.3C287.459 227.54 283.599 223.68 278.839 223.68Z" fill="#321111"/>
<mask id="mask1_2607_229" style="mask-type:luminance" maskUnits="userSpaceOnUse" x="153" y="76" width="246" height="477">
<path d="M369.219 341.68H398.219V252.68C398.219 251.4 398.189 250.12 398.139 248.84C398.139 248.66 398.129 248.47 398.119 248.29C398.069 247.09 398.009 245.9 397.929 244.71C397.929 244.62 397.919 244.53 397.909 244.44C397.729 241.83 397.459 239.23 397.109 236.67C397.089 236.53 397.069 236.4 397.049 236.26C396.889 235.1 396.709 233.95 396.519 232.81C396.499 232.68 396.479 232.55 396.449 232.42C396.009 229.87 395.499 227.35 394.909 224.85C394.899 224.8 394.889 224.76 394.879 224.71C394.599 223.53 394.299 222.36 393.989 221.2C393.949 221.07 393.919 220.94 393.879 220.81C392.869 217.13 391.699 213.52 390.369 209.98C390.329 209.89 390.299 209.79 390.259 209.7C389.819 208.55 389.369 207.41 388.899 206.28C388.899 206.26 388.889 206.25 388.879 206.23C387.899 203.86 386.839 201.53 385.709 199.24C385.699 199.21 385.679 199.19 385.669 199.16C385.119 198.05 384.559 196.94 383.979 195.85C383.959 195.81 383.939 195.78 383.919 195.74C382.129 192.37 380.179 189.1 378.099 185.92C378.079 185.9 378.069 185.87 378.049 185.85C366.959 169.03 351.829 155.11 334.059 145.46L338.189 131.06C347.279 128.68 354.909 121.71 357.689 112.03C361.879 97.4299 353.439 82.1999 338.839 78.0099C324.239 73.8199 309.009 82.2599 304.819 96.8599C302.039 106.54 304.819 116.5 311.269 123.33L307.929 134.96C302.249 133.41 296.409 132.26 290.429 131.54C290.359 131.54 290.279 131.52 290.209 131.51C288.669 131.33 287.129 131.17 285.579 131.05C285.549 131.05 285.529 131.05 285.499 131.05C284.019 130.93 282.529 130.85 281.029 130.78C280.739 130.77 280.449 130.76 280.149 130.75C278.669 130.7 277.189 130.66 275.699 130.66C274.439 130.66 273.189 130.69 271.939 130.72C271.579 130.73 271.229 130.75 270.879 130.76C269.929 130.8 268.989 130.84 268.049 130.9C267.719 130.92 267.389 130.94 267.059 130.96C264.509 131.14 261.969 131.39 259.469 131.73C259.349 131.75 259.229 131.76 259.119 131.78C257.939 131.94 256.759 132.12 255.589 132.31C255.459 132.33 255.329 132.35 255.199 132.37C249.289 133.37 243.529 134.8 237.939 136.61L234.129 123.32C240.579 116.49 243.359 106.53 240.579 96.8499C236.389 82.2499 221.159 73.8099 206.559 77.9999C191.959 82.1899 183.519 97.4199 187.709 112.02C190.489 121.7 198.119 128.67 207.209 131.05L212.189 148.41C207.059 151.53 202.169 154.99 197.569 158.81C197.509 158.86 197.459 158.91 197.399 158.95C196.629 159.59 195.869 160.24 195.119 160.89C194.939 161.05 194.759 161.21 194.589 161.36C193.959 161.92 193.329 162.48 192.719 163.05C192.509 163.24 192.309 163.43 192.099 163.63C191.509 164.18 190.919 164.74 190.339 165.31C190.139 165.51 189.939 165.7 189.739 165.9C189.139 166.49 188.539 167.1 187.949 167.7C187.789 167.86 187.629 168.03 187.469 168.19C186.769 168.92 186.079 169.65 185.399 170.39C185.359 170.44 185.319 170.48 185.269 170.52C183.769 172.16 182.309 173.85 180.899 175.57C180.829 175.65 180.759 175.74 180.699 175.82C180.089 176.57 179.489 177.33 178.889 178.09C178.759 178.26 178.619 178.44 178.489 178.61C177.959 179.3 177.439 180 176.919 180.7C176.779 180.9 176.629 181.09 176.489 181.29C175.979 182 175.469 182.71 174.979 183.43C174.859 183.61 174.729 183.79 174.609 183.97C174.069 184.76 173.539 185.56 173.009 186.36C172.939 186.46 172.879 186.56 172.809 186.66C170.999 189.46 169.299 192.34 167.709 195.29C167.649 195.4 167.589 195.52 167.529 195.64C167.079 196.49 166.629 197.35 166.199 198.21C166.109 198.39 166.019 198.57 165.929 198.75C165.519 199.57 165.129 200.39 164.739 201.22C164.649 201.41 164.569 201.59 164.479 201.78C164.079 202.64 163.689 203.51 163.309 204.38C163.249 204.52 163.189 204.66 163.129 204.79C161.359 208.91 159.809 213.14 158.489 217.48C158.449 217.63 158.399 217.77 158.359 217.92C158.079 218.85 157.819 219.78 157.559 220.71C157.509 220.9 157.459 221.08 157.409 221.27C157.159 222.19 156.929 223.11 156.699 224.04C156.659 224.21 156.609 224.39 156.569 224.56C156.329 225.57 156.099 226.58 155.889 227.59C155.869 227.67 155.849 227.75 155.839 227.84C155.129 231.24 154.549 234.68 154.129 238.18C154.119 238.27 154.109 238.36 154.099 238.44C153.979 239.48 153.859 240.53 153.769 241.58C153.749 241.76 153.739 241.95 153.719 242.13C153.629 243.1 153.559 244.08 153.489 245.06C153.479 245.26 153.459 245.47 153.449 245.67C153.389 246.67 153.339 247.67 153.309 248.68C153.309 248.84 153.299 249 153.289 249.16C153.249 250.32 153.229 251.47 153.229 252.64V552.64H369.229V341.64L369.219 341.68Z" fill="white"/>
</mask>
<g mask="url(#mask1_2607_229)">
<path d="M360.678 152.87C360.678 152.87 350.848 180.62 334.628 186.01C316.398 192.07 300.428 184.25 294.228 185.67C280.048 188.91 269.588 205.16 247.028 208.39C201.568 214.89 193.298 191.61 188.908 173.9C179.748 136.95 152.378 43.3401 229.438 45.1801C417.178 49.6701 360.668 152.87 360.668 152.87H360.678Z" fill="#E0AC5A"/>
<path d="M153.408 381.91C167.538 371.67 205.218 379.3 213.218 412.63C221.908 448.84 250.368 473.06 252.018 497.92C255.198 545.75 221.188 589.9 142.938 567.83C64.6876 545.75 123.638 403.49 153.408 381.91Z" fill="#E0AC5A"/>
</g>
<path d="M345.008 269.2C363.918 269.2 376.548 266.96 391.568 269.56C407.398 272.3 431.028 281.93 427.248 327.12C423.468 372.31 373.438 384.68 339.338 384.68C305.238 384.68 255.208 368.18 252.368 329C249.708 292.2 266.548 274.35 283.568 270.23C313.838 262.89 327.668 269.2 345.018 269.2H345.008Z" fill="#E0AC5A"/>
<path d="M348.138 282.52C362.108 282.52 371.448 280.88 382.558 282.78C394.258 284.78 411.728 291.8 408.928 324.76C406.128 357.72 369.158 366.74 343.948 366.74C318.738 366.74 281.758 354.71 279.668 326.13C277.698 299.29 290.148 286.28 302.728 283.27C325.108 277.92 335.328 282.52 348.148 282.52H348.138Z" fill="#E0AC5A"/>
<path d="M206.449 319.43C190.349 318.04 148.119 284.18 186.239 258.03C222.609 233.08 244.509 262.42 230.889 285.12C221.399 300.94 230.879 321.54 206.449 319.43Z" fill="#E0AC5A"/>
<path d="M267.739 435.06C269.529 425.85 279.229 414.67 296.619 409.91C309.659 406.34 326.459 402.01 334.159 405.8C348.989 413.09 367.799 436.39 335.219 472.68C302.649 508.97 263.969 454.47 267.729 435.07L267.739 435.06Z" fill="#E0AC5A"/>
<path d="M265.289 208.41L287.899 214.13" stroke="#321111" stroke-width="8" stroke-miterlimit="10" stroke-linecap="round"/>
<path d="M355.729 208.41L333.119 214.13" stroke="#321111" stroke-width="8" stroke-miterlimit="10" stroke-linecap="round"/>
<path d="M316.219 303.18C316.219 303.18 324.919 319.18 349.349 319.18C373.779 319.18 380.219 303.18 380.219 303.18" stroke="#321111" stroke-width="10" stroke-miterlimit="10" stroke-linecap="round"/>
</g>
</svg>
