<svg width="537" height="537" viewBox="0 0 537 537" fill="none" xmlns="http://www.w3.org/2000/svg">
<path d="M268.891 536.5C416.903 536.5 536.891 416.512 536.891 268.5C536.891 120.488 416.903 0.5 268.891 0.5C120.878 0.5 0.890625 120.488 0.890625 268.5C0.890625 416.512 120.878 536.5 268.891 536.5Z" fill="#FA73BB"/>
<mask id="mask0_2607_301" style="mask-type:luminance" maskUnits="userSpaceOnUse" x="0" y="0" width="537" height="537">
<path d="M268.891 536.5C416.903 536.5 536.891 416.512 536.891 268.5C536.891 120.488 416.903 0.5 268.891 0.5C120.878 0.5 0.890625 120.488 0.890625 268.5C0.890625 416.512 120.878 536.5 268.891 536.5Z" fill="white"/>
</mask>
<g mask="url(#mask0_2607_301)">
<path d="M144.672 298.64C162.395 298.64 176.762 284.255 176.762 266.51C176.762 248.765 162.395 234.38 144.672 234.38C126.949 234.38 112.582 248.765 112.582 266.51C112.582 284.255 126.949 298.64 144.672 298.64Z" fill="#E0AC5A"/>
<path d="M144.672 357.13C162.395 357.13 176.762 342.745 176.762 325C176.762 307.255 162.395 292.87 144.672 292.87C126.949 292.87 112.582 307.255 112.582 325C112.582 342.745 126.949 357.13 144.672 357.13Z" fill="#E0AC5A"/>
<path d="M144.672 415.62C162.395 415.62 176.762 401.235 176.762 383.49C176.762 365.745 162.395 351.36 144.672 351.36C126.949 351.36 112.582 365.745 112.582 383.49C112.582 401.235 126.949 415.62 144.672 415.62Z" fill="#E0AC5A"/>
<path d="M144.672 474.11C162.395 474.11 176.762 459.725 176.762 441.98C176.762 424.235 162.395 409.85 144.672 409.85C126.949 409.85 112.582 424.235 112.582 441.98C112.582 459.725 126.949 474.11 144.672 474.11Z" fill="#E0AC5A"/>
<path d="M144.461 532.6C162.184 532.6 176.551 518.215 176.551 500.47C176.551 482.725 162.184 468.34 144.461 468.34C126.738 468.34 112.371 482.725 112.371 500.47C112.371 518.215 126.738 532.6 144.461 532.6Z" fill="#E0AC5A"/>
<path d="M144.461 591.09C162.184 591.09 176.551 576.705 176.551 558.96C176.551 541.215 162.184 526.83 144.461 526.83C126.738 526.83 112.371 541.215 112.371 558.96C112.371 576.705 126.738 591.09 144.461 591.09Z" fill="#E0AC5A"/>
<path d="M369.55 341.38H398.52V252.38C398.52 251.1 398.489 249.82 398.439 248.54C398.439 248.36 398.43 248.17 398.42 247.99C398.37 246.79 398.309 245.6 398.229 244.41C398.229 244.32 398.219 244.23 398.209 244.14C398.029 241.53 397.76 238.93 397.41 236.37C397.39 236.23 397.369 236.1 397.349 235.96C397.189 234.8 397.009 233.65 396.819 232.51C396.799 232.38 396.78 232.25 396.75 232.12C396.31 229.57 395.799 227.05 395.209 224.55C395.199 224.5 395.19 224.46 395.18 224.41C394.9 223.23 394.6 222.06 394.29 220.9C394.26 220.77 394.22 220.64 394.18 220.51C393.17 216.83 392 213.22 390.67 209.68C390.63 209.59 390.6 209.49 390.56 209.4C390.12 208.25 389.669 207.11 389.209 205.98C389.209 205.96 389.199 205.95 389.189 205.93C388.209 203.56 387.15 201.23 386.03 198.94C386.02 198.91 385.999 198.89 385.99 198.86C385.439 197.75 384.88 196.64 384.3 195.55C384.28 195.51 384.26 195.48 384.24 195.44C382.45 192.07 380.51 188.8 378.42 185.62C378.4 185.6 378.39 185.57 378.37 185.55C367.29 168.73 352.18 154.81 334.42 145.16L338.54 130.76C347.62 128.38 355.25 121.41 358.02 111.73C362.2 97.1301 353.769 81.9001 339.189 77.7101C324.609 73.5201 309.389 81.9601 305.209 96.5601C302.439 106.24 305.21 116.2 311.66 123.03L308.329 134.66C302.659 133.11 296.819 131.96 290.849 131.24C290.779 131.24 290.7 131.22 290.63 131.21C289.09 131.03 287.55 130.87 286 130.75C285.97 130.75 285.95 130.75 285.92 130.75C284.44 130.63 282.949 130.55 281.459 130.48C281.169 130.47 280.879 130.46 280.579 130.45C279.099 130.4 277.62 130.36 276.13 130.36C274.87 130.36 273.62 130.39 272.38 130.42C272.02 130.43 271.669 130.45 271.319 130.46C270.369 130.5 269.43 130.54 268.49 130.6C268.16 130.62 267.83 130.64 267.5 130.66C264.95 130.84 262.42 131.09 259.91 131.43C259.79 131.45 259.67 131.46 259.56 131.48C258.38 131.64 257.2 131.82 256.03 132.01C255.9 132.03 255.77 132.05 255.64 132.07C249.74 133.07 243.98 134.5 238.4 136.31L234.589 123.02C241.029 116.19 243.81 106.23 241.04 96.5501C236.86 81.9501 221.64 73.5101 207.06 77.7001C192.48 81.8901 184.039 97.1201 188.229 111.72C190.999 121.4 198.629 128.37 207.709 130.75L212.68 148.11C207.56 151.23 202.669 154.69 198.079 158.51C198.019 158.56 197.97 158.61 197.91 158.65C197.14 159.29 196.38 159.94 195.63 160.59C195.45 160.75 195.269 160.91 195.099 161.06C194.469 161.62 193.849 162.18 193.229 162.75C193.019 162.94 192.819 163.13 192.609 163.33C192.019 163.88 191.429 164.44 190.849 165.01C190.649 165.21 190.45 165.4 190.25 165.6C189.65 166.19 189.049 166.8 188.459 167.4C188.299 167.56 188.139 167.73 187.979 167.89C187.279 168.62 186.59 169.35 185.91 170.09C185.87 170.14 185.83 170.18 185.78 170.22C184.28 171.86 182.83 173.55 181.42 175.27C181.35 175.35 181.279 175.44 181.219 175.52C180.609 176.27 180.01 177.03 179.41 177.79C179.28 177.96 179.14 178.14 179.01 178.31C178.48 179 177.959 179.7 177.439 180.4C177.299 180.6 177.15 180.79 177.01 180.99C176.5 181.7 175.99 182.41 175.5 183.13C175.38 183.31 175.25 183.49 175.13 183.67C174.59 184.46 174.06 185.26 173.53 186.06C173.46 186.16 173.399 186.26 173.329 186.36C171.519 189.16 169.82 192.04 168.24 194.99C168.18 195.1 168.12 195.22 168.06 195.34C167.61 196.19 167.169 197.05 166.729 197.91C166.639 198.09 166.549 198.27 166.459 198.45C166.049 199.27 165.66 200.09 165.27 200.92C165.18 201.11 165.1 201.29 165.01 201.48C164.61 202.34 164.219 203.21 163.849 204.08C163.789 204.22 163.73 204.36 163.67 204.49C161.9 208.61 160.35 212.84 159.03 217.18C158.99 217.33 158.94 217.47 158.9 217.62C158.62 218.55 158.359 219.48 158.099 220.41C158.049 220.6 157.999 220.78 157.949 220.97C157.699 221.89 157.47 222.81 157.24 223.74C157.2 223.91 157.149 224.09 157.109 224.26C156.869 225.27 156.64 226.28 156.43 227.29C156.41 227.37 156.39 227.45 156.38 227.54C155.67 230.94 155.1 234.38 154.67 237.88C154.66 237.97 154.65 238.06 154.64 238.14C154.52 239.18 154.4 240.23 154.31 241.28C154.29 241.46 154.28 241.65 154.26 241.83C154.17 242.8 154.1 243.78 154.03 244.76C154.02 244.96 154 245.17 153.99 245.37C153.93 246.37 153.879 247.37 153.849 248.38C153.849 248.54 153.839 248.7 153.829 248.86C153.789 250.02 153.77 251.17 153.77 252.34V552.34H369.54V341.34L369.55 341.38Z" fill="#FEE66A"/>
<path d="M384.75 147.01C412.12 129.04 453.87 125.21 460.4 139.55C466.93 153.89 452.95 197.71 419.58 219.62C392.21 237.59 371.06 236.48 344.53 229.98C343.24 197.53 351.39 168.92 384.75 147.01Z" fill="#FEE66A"/>
<path d="M159.57 142.81C128.88 124.84 83.3802 123 77.0902 138.92C71.0402 154.22 88.4003 201.6 125.81 223.51C156.5 241.48 179.38 239.11 207.8 230.58C207.4 195.31 196.98 164.72 159.57 142.81Z" fill="#FEE66A"/>
<path d="M352.35 246.5V234.78C352.35 229.04 347.7 224.39 341.97 224.39C336.24 224.39 331.59 229.04 331.59 234.78V246.5" stroke="#321111" stroke-width="10" stroke-linecap="round" stroke-linejoin="round"/>
<path d="M287.66 246.5V234.78C287.66 229.04 283.01 224.39 277.28 224.39C271.55 224.39 266.9 229.04 266.9 234.78L266.92 246.5" stroke="#321111" stroke-width="10" stroke-linecap="round" stroke-linejoin="round"/>
<mask id="mask1_2607_301" style="mask-type:luminance" maskUnits="userSpaceOnUse" x="153" y="76" width="246" height="477">
<path d="M369.55 341.38H398.52V252.38C398.52 251.1 398.489 249.82 398.439 248.54C398.439 248.36 398.43 248.17 398.42 247.99C398.37 246.79 398.309 245.6 398.229 244.41C398.229 244.32 398.219 244.23 398.209 244.14C398.029 241.53 397.76 238.93 397.41 236.37C397.39 236.23 397.369 236.1 397.349 235.96C397.189 234.8 397.009 233.65 396.819 232.51C396.799 232.38 396.78 232.25 396.75 232.12C396.31 229.57 395.799 227.05 395.209 224.55C395.199 224.5 395.19 224.46 395.18 224.41C394.9 223.23 394.6 222.06 394.29 220.9C394.26 220.77 394.22 220.64 394.18 220.51C393.17 216.83 392 213.22 390.67 209.68C390.63 209.59 390.6 209.49 390.56 209.4C390.12 208.25 389.669 207.11 389.209 205.98C389.209 205.96 389.199 205.95 389.189 205.93C388.209 203.56 387.15 201.23 386.03 198.94C386.02 198.91 385.999 198.89 385.99 198.86C385.439 197.75 384.88 196.64 384.3 195.55C384.28 195.51 384.26 195.48 384.24 195.44C382.45 192.07 380.51 188.8 378.42 185.62C378.4 185.6 378.39 185.57 378.37 185.55C367.29 168.73 352.18 154.81 334.42 145.16L338.54 130.76C347.62 128.38 355.25 121.41 358.02 111.73C362.2 97.1301 353.769 81.9001 339.189 77.7101C324.609 73.5201 309.389 81.9601 305.209 96.5601C302.439 106.24 305.21 116.2 311.66 123.03L308.329 134.66C302.659 133.11 296.819 131.96 290.849 131.24C290.779 131.24 290.7 131.22 290.63 131.21C289.09 131.03 287.55 130.87 286 130.75C285.97 130.75 285.95 130.75 285.92 130.75C284.44 130.63 282.949 130.55 281.459 130.48C281.169 130.47 280.879 130.46 280.579 130.45C279.099 130.4 277.62 130.36 276.13 130.36C274.87 130.36 273.62 130.39 272.38 130.42C272.02 130.43 271.669 130.45 271.319 130.46C270.369 130.5 269.43 130.54 268.49 130.6C268.16 130.62 267.83 130.64 267.5 130.66C264.95 130.84 262.42 131.09 259.91 131.43C259.79 131.45 259.67 131.46 259.56 131.48C258.38 131.64 257.2 131.82 256.03 132.01C255.9 132.03 255.77 132.05 255.64 132.07C249.74 133.07 243.98 134.5 238.4 136.31L234.589 123.02C241.029 116.19 243.81 106.23 241.04 96.5501C236.86 81.9501 221.64 73.5101 207.06 77.7001C192.48 81.8901 184.039 97.1201 188.229 111.72C190.999 121.4 198.629 128.37 207.709 130.75L212.68 148.11C207.56 151.23 202.669 154.69 198.079 158.51C198.019 158.56 197.97 158.61 197.91 158.65C197.14 159.29 196.38 159.94 195.63 160.59C195.45 160.75 195.269 160.91 195.099 161.06C194.469 161.62 193.849 162.18 193.229 162.75C193.019 162.94 192.819 163.13 192.609 163.33C192.019 163.88 191.429 164.44 190.849 165.01C190.649 165.21 190.45 165.4 190.25 165.6C189.65 166.19 189.049 166.8 188.459 167.4C188.299 167.56 188.139 167.73 187.979 167.89C187.279 168.62 186.59 169.35 185.91 170.09C185.87 170.14 185.83 170.18 185.78 170.22C184.28 171.86 182.83 173.55 181.42 175.27C181.35 175.35 181.279 175.44 181.219 175.52C180.609 176.27 180.01 177.03 179.41 177.79C179.28 177.96 179.14 178.14 179.01 178.31C178.48 179 177.959 179.7 177.439 180.4C177.299 180.6 177.15 180.79 177.01 180.99C176.5 181.7 175.99 182.41 175.5 183.13C175.38 183.31 175.25 183.49 175.13 183.67C174.59 184.46 174.06 185.26 173.53 186.06C173.46 186.16 173.399 186.26 173.329 186.36C171.519 189.16 169.82 192.04 168.24 194.99C168.18 195.1 168.12 195.22 168.06 195.34C167.61 196.19 167.169 197.05 166.729 197.91C166.639 198.09 166.549 198.27 166.459 198.45C166.049 199.27 165.66 200.09 165.27 200.92C165.18 201.11 165.1 201.29 165.01 201.48C164.61 202.34 164.219 203.21 163.849 204.08C163.789 204.22 163.73 204.36 163.67 204.49C161.9 208.61 160.35 212.84 159.03 217.18C158.99 217.33 158.94 217.47 158.9 217.62C158.62 218.55 158.359 219.48 158.099 220.41C158.049 220.6 157.999 220.78 157.949 220.97C157.699 221.89 157.47 222.81 157.24 223.74C157.2 223.91 157.149 224.09 157.109 224.26C156.869 225.27 156.64 226.28 156.43 227.29C156.41 227.37 156.39 227.45 156.38 227.54C155.67 230.94 155.1 234.38 154.67 237.88C154.66 237.97 154.65 238.06 154.64 238.14C154.52 239.18 154.4 240.23 154.31 241.28C154.29 241.46 154.28 241.65 154.26 241.83C154.17 242.8 154.1 243.78 154.03 244.76C154.02 244.96 154 245.17 153.99 245.37C153.93 246.37 153.879 247.37 153.849 248.38C153.849 248.54 153.839 248.7 153.829 248.86C153.789 250.02 153.77 251.17 153.77 252.34V552.34H369.54V341.34L369.55 341.38Z" fill="white"/>
</mask>
<g mask="url(#mask1_2607_301)">
<path d="M361.019 152.57C361.019 152.57 351.199 180.32 334.999 185.71C316.789 191.77 300.839 183.95 294.649 185.37C280.479 188.61 270.039 204.86 247.499 208.09C202.079 214.59 193.829 191.31 189.449 173.6C180.299 136.65 152.959 43.0403 229.939 44.8803C417.479 49.3703 361.029 152.57 361.029 152.57H361.019Z" fill="#E0AC5A"/>
<path d="M153.969 381.62C168.089 371.38 205.729 379.01 213.719 412.34C222.399 448.55 250.829 472.77 252.479 497.63C255.649 545.46 221.679 589.61 143.509 567.54C65.3391 545.46 124.229 403.2 153.969 381.62Z" fill="#E0AC5A"/>
<path d="M398.518 329.38C423.896 329.38 444.468 308.785 444.468 283.38C444.468 257.975 423.896 237.38 398.518 237.38C373.141 237.38 352.568 257.975 352.568 283.38C352.568 308.785 373.141 329.38 398.518 329.38Z" fill="#F69799"/>
</g>
<path d="M348.49 282.22C362.45 282.22 371.78 280.58 382.87 282.48C394.56 284.48 412 291.5 409.21 324.46C406.42 357.42 369.48 366.44 344.3 366.44C319.12 366.44 282.18 354.41 280.09 325.83C278.12 298.99 290.56 285.98 303.12 282.97C325.47 277.62 335.68 282.22 348.49 282.22Z" fill="#E0AC5A"/>
<path d="M206.96 319.14C190.88 317.75 148.69 283.89 186.77 257.74C223.1 232.79 244.97 262.13 231.37 284.83C221.89 300.65 231.36 321.25 206.96 319.14Z" fill="#E0AC5A"/>
<path d="M268.169 434.77C269.959 425.56 279.649 414.38 297.019 409.62C310.049 406.05 326.819 401.72 334.519 405.51C349.329 412.8 368.119 436.1 335.579 472.39C303.039 508.68 264.399 454.18 268.159 434.78L268.169 434.77Z" fill="#E0AC5A"/>
<path d="M210.719 326.38C236.097 326.38 256.67 305.785 256.67 280.38C256.67 254.975 236.097 234.38 210.719 234.38C185.342 234.38 164.77 254.975 164.77 280.38C164.77 305.785 185.342 326.38 210.719 326.38Z" fill="#F69799"/>
<path d="M345.36 268.9C364.25 268.9 376.86 266.66 391.87 269.26C407.68 272 431.29 281.63 427.51 326.82C423.73 372.01 373.76 384.38 339.69 384.38C305.62 384.38 255.65 367.88 252.81 328.7C250.15 291.9 266.97 274.05 283.97 269.93C314.21 262.59 328.03 268.9 345.35 268.9H345.36Z" fill="#E0AC5A"/>
<path d="M314.621 298.88C314.621 298.88 316.311 317.88 340.711 317.88C365.111 317.88 366.551 298.88 366.551 298.88" stroke="#321111" stroke-width="10" stroke-miterlimit="10" stroke-linecap="round"/>
</g>
</svg>
