<svg width="537" height="537" viewBox="0 0 537 537" fill="none" xmlns="http://www.w3.org/2000/svg">
<path d="M268.27 536.5C416.282 536.5 536.27 416.512 536.27 268.5C536.27 120.488 416.282 0.5 268.27 0.5C120.257 0.5 0.269531 120.488 0.269531 268.5C0.269531 416.512 120.257 536.5 268.27 536.5Z" fill="#FF7D7D"/>
<mask id="mask0_2607_336" style="mask-type:luminance" maskUnits="userSpaceOnUse" x="0" y="0" width="537" height="537">
<path d="M268.4 536.5C416.413 536.5 536.4 416.512 536.4 268.5C536.4 120.488 416.413 0.5 268.4 0.5C120.388 0.5 0.400391 120.488 0.400391 268.5C0.400391 416.512 120.388 536.5 268.4 536.5Z" fill="white"/>
</mask>
<g mask="url(#mask0_2607_336)">
<path d="M151.05 300.88C168.795 300.88 183.18 286.495 183.18 268.75C183.18 251.005 168.795 236.62 151.05 236.62C133.305 236.62 118.92 251.005 118.92 268.75C118.92 286.495 133.305 300.88 151.05 300.88Z" fill="#E0AC5A"/>
<path d="M151.05 359.369C168.795 359.369 183.18 344.984 183.18 327.239C183.18 309.494 168.795 295.109 151.05 295.109C133.305 295.109 118.92 309.494 118.92 327.239C118.92 344.984 133.305 359.369 151.05 359.369Z" fill="#E0AC5A"/>
<path d="M151.05 417.86C168.795 417.86 183.18 403.475 183.18 385.73C183.18 367.985 168.795 353.6 151.05 353.6C133.305 353.6 118.92 367.985 118.92 385.73C118.92 403.475 133.305 417.86 151.05 417.86Z" fill="#E0AC5A"/>
<path d="M151.05 476.35C168.795 476.35 183.18 461.965 183.18 444.22C183.18 426.475 168.795 412.09 151.05 412.09C133.305 412.09 118.92 426.475 118.92 444.22C118.92 461.965 133.305 476.35 151.05 476.35Z" fill="#E0AC5A"/>
<path d="M150.851 534.83C168.596 534.83 182.981 520.445 182.981 502.7C182.981 484.955 168.596 470.57 150.851 470.57C133.106 470.57 118.721 484.955 118.721 502.7C118.721 520.445 133.106 534.83 150.851 534.83Z" fill="#E0AC5A"/>
<path d="M150.851 593.32C168.596 593.32 182.981 578.934 182.981 561.19C182.981 543.445 168.596 529.06 150.851 529.06C133.106 529.06 118.721 543.445 118.721 561.19C118.721 578.934 133.106 593.32 150.851 593.32Z" fill="#E0AC5A"/>
<path d="M369.18 341.62H398.179V252.62C398.179 251.34 398.15 250.06 398.1 248.78C398.1 248.6 398.09 248.41 398.08 248.23C398.03 247.03 397.969 245.84 397.889 244.65C397.889 244.56 397.88 244.47 397.87 244.38C397.69 241.77 397.42 239.17 397.07 236.61C397.05 236.47 397.03 236.34 397.01 236.2C396.85 235.04 396.669 233.89 396.479 232.75C396.459 232.62 396.439 232.49 396.409 232.36C395.969 229.81 395.46 227.29 394.87 224.79C394.86 224.74 394.85 224.7 394.84 224.65C394.56 223.47 394.259 222.3 393.949 221.14C393.909 221.01 393.88 220.88 393.84 220.75C392.83 217.07 391.66 213.46 390.33 209.92C390.29 209.83 390.259 209.73 390.219 209.64C389.779 208.49 389.33 207.35 388.86 206.22C388.86 206.2 388.85 206.19 388.84 206.17C387.86 203.8 386.799 201.47 385.669 199.18C385.659 199.15 385.639 199.13 385.629 199.1C385.079 197.99 384.519 196.88 383.939 195.79C383.919 195.75 383.899 195.72 383.879 195.68C382.089 192.31 380.14 189.04 378.06 185.86C378.04 185.84 378.03 185.81 378.01 185.79C366.92 168.97 351.79 155.05 334.02 145.4L338.15 131C347.24 128.62 354.87 121.65 357.65 111.97C361.84 97.3698 353.4 82.1398 338.8 77.9498C324.2 73.7598 308.97 82.1998 304.78 96.7998C302 106.48 304.779 116.44 311.229 123.27L307.89 134.9C302.21 133.35 296.37 132.2 290.39 131.48C290.32 131.48 290.24 131.46 290.17 131.45C288.63 131.27 287.09 131.11 285.54 130.99C285.51 130.99 285.489 130.99 285.459 130.99C283.979 130.87 282.49 130.79 280.99 130.72C280.7 130.71 280.41 130.7 280.109 130.69C278.629 130.64 277.15 130.6 275.66 130.6C274.4 130.6 273.15 130.63 271.9 130.66C271.54 130.67 271.189 130.69 270.839 130.7C269.889 130.74 268.95 130.78 268.01 130.84C267.68 130.86 267.35 130.88 267.02 130.9C264.47 131.08 261.93 131.33 259.43 131.67C259.31 131.69 259.189 131.7 259.079 131.72C257.899 131.88 256.72 132.06 255.55 132.25C255.42 132.27 255.29 132.29 255.16 132.31C249.25 133.31 243.49 134.74 237.9 136.55L234.089 123.26C240.539 116.43 243.32 106.47 240.54 96.7898C236.35 82.1898 221.12 73.7498 206.52 77.9398C191.92 82.1298 183.48 97.3598 187.67 111.96C190.45 121.64 198.08 128.61 207.17 130.99L212.15 148.35C207.02 151.47 202.13 154.93 197.53 158.75C197.47 158.8 197.419 158.85 197.359 158.89C196.589 159.53 195.829 160.18 195.079 160.83C194.899 160.99 194.72 161.15 194.55 161.3C193.92 161.86 193.29 162.42 192.68 162.99C192.47 163.18 192.27 163.37 192.06 163.57C191.47 164.12 190.88 164.68 190.3 165.25C190.1 165.45 189.899 165.64 189.699 165.84C189.099 166.43 188.5 167.04 187.91 167.64C187.75 167.8 187.59 167.97 187.43 168.13C186.73 168.86 186.039 169.59 185.359 170.33C185.319 170.38 185.279 170.42 185.229 170.46C183.729 172.1 182.269 173.79 180.859 175.51C180.789 175.59 180.72 175.68 180.66 175.76C180.05 176.51 179.449 177.27 178.849 178.03C178.719 178.2 178.579 178.38 178.449 178.55C177.919 179.24 177.4 179.94 176.88 180.64C176.74 180.84 176.589 181.03 176.449 181.23C175.939 181.94 175.429 182.65 174.939 183.37C174.819 183.55 174.689 183.73 174.569 183.91C174.029 184.7 173.499 185.5 172.969 186.3C172.899 186.4 172.84 186.5 172.77 186.6C170.96 189.4 169.26 192.28 167.67 195.23C167.61 195.34 167.55 195.46 167.49 195.58C167.04 196.43 166.59 197.29 166.16 198.15C166.07 198.33 165.98 198.51 165.89 198.69C165.48 199.51 165.089 200.33 164.699 201.16C164.609 201.35 164.529 201.53 164.439 201.72C164.039 202.58 163.65 203.45 163.27 204.32C163.21 204.46 163.149 204.6 163.089 204.73C161.319 208.85 159.769 213.08 158.449 217.42C158.409 217.57 158.359 217.71 158.319 217.86C158.039 218.79 157.78 219.72 157.52 220.65C157.47 220.84 157.42 221.02 157.37 221.21C157.12 222.13 156.89 223.05 156.66 223.98C156.62 224.15 156.57 224.33 156.53 224.5C156.29 225.51 156.059 226.52 155.849 227.53C155.829 227.61 155.81 227.69 155.8 227.78C155.09 231.18 154.509 234.62 154.089 238.12C154.079 238.21 154.07 238.3 154.06 238.38C153.94 239.42 153.819 240.47 153.729 241.52C153.709 241.7 153.7 241.89 153.68 242.07C153.59 243.04 153.519 244.02 153.449 245C153.439 245.2 153.42 245.41 153.41 245.61C153.35 246.61 153.3 247.61 153.27 248.62C153.27 248.78 153.26 248.94 153.25 249.1C153.21 250.26 153.189 251.41 153.189 252.58V552.58H369.189V341.58L369.18 341.62Z" fill="#FEE66A"/>
<path d="M384.38 147.24C411.78 129.27 453.57 125.44 460.11 139.78C466.39 153.56 452.65 197.94 419.25 219.85C391.85 237.82 370.68 236.71 344.12 230.21C342.83 197.76 350.98 169.15 384.38 147.24Z" fill="#FEE66A"/>
<path d="M158.96 143.04C128.24 125.07 82.6904 123.23 76.3904 139.15C70.3404 154.45 87.7104 201.83 125.16 223.74C155.88 241.71 178.79 239.34 207.24 230.81C206.84 195.54 196.41 164.95 158.96 143.04Z" fill="#FEE66A"/>
<path d="M343.56 223.62C338.8 223.62 334.939 227.48 334.939 232.24V244.45H334.949C335.099 249.08 338.89 252.78 343.56 252.78C348.23 252.78 352.01 249.07 352.17 244.45H352.18V232.24C352.18 227.48 348.32 223.62 343.56 223.62Z" fill="#321111"/>
<path d="M278.8 223.62C274.04 223.62 270.18 227.48 270.18 232.24V244.45H270.19C270.34 249.08 274.13 252.78 278.8 252.78C283.47 252.78 287.25 249.07 287.41 244.45H287.42V232.24C287.42 227.48 283.56 223.62 278.8 223.62Z" fill="#321111"/>
<mask id="mask1_2607_336" style="mask-type:luminance" maskUnits="userSpaceOnUse" x="153" y="76" width="246" height="477">
<path d="M369.18 341.62H398.179V252.62C398.179 251.34 398.15 250.06 398.1 248.78C398.1 248.6 398.09 248.41 398.08 248.23C398.03 247.03 397.969 245.84 397.889 244.65C397.889 244.56 397.88 244.47 397.87 244.38C397.69 241.77 397.42 239.17 397.07 236.61C397.05 236.47 397.03 236.34 397.01 236.2C396.85 235.04 396.669 233.89 396.479 232.75C396.459 232.62 396.439 232.49 396.409 232.36C395.969 229.81 395.46 227.29 394.87 224.79C394.86 224.74 394.85 224.7 394.84 224.65C394.56 223.47 394.259 222.3 393.949 221.14C393.909 221.01 393.88 220.88 393.84 220.75C392.83 217.07 391.66 213.46 390.33 209.92C390.29 209.83 390.259 209.73 390.219 209.64C389.779 208.49 389.33 207.35 388.86 206.22C388.86 206.2 388.85 206.19 388.84 206.17C387.86 203.8 386.799 201.47 385.669 199.18C385.659 199.15 385.639 199.13 385.629 199.1C385.079 197.99 384.519 196.88 383.939 195.79C383.919 195.75 383.899 195.72 383.879 195.68C382.089 192.31 380.14 189.04 378.06 185.86C378.04 185.84 378.03 185.81 378.01 185.79C366.92 168.97 351.79 155.05 334.02 145.4L338.15 131C347.24 128.62 354.87 121.65 357.65 111.97C361.84 97.3698 353.4 82.1398 338.8 77.9498C324.2 73.7598 308.97 82.1998 304.78 96.7998C302 106.48 304.779 116.44 311.229 123.27L307.89 134.9C302.21 133.35 296.37 132.2 290.39 131.48C290.32 131.48 290.24 131.46 290.17 131.45C288.63 131.27 287.09 131.11 285.54 130.99C285.51 130.99 285.489 130.99 285.459 130.99C283.979 130.87 282.49 130.79 280.99 130.72C280.7 130.71 280.41 130.7 280.109 130.69C278.629 130.64 277.15 130.6 275.66 130.6C274.4 130.6 273.15 130.63 271.9 130.66C271.54 130.67 271.189 130.69 270.839 130.7C269.889 130.74 268.95 130.78 268.01 130.84C267.68 130.86 267.35 130.88 267.02 130.9C264.47 131.08 261.93 131.33 259.43 131.67C259.31 131.69 259.189 131.7 259.079 131.72C257.899 131.88 256.72 132.06 255.55 132.25C255.42 132.27 255.29 132.29 255.16 132.31C249.25 133.31 243.49 134.74 237.9 136.55L234.089 123.26C240.539 116.43 243.32 106.47 240.54 96.7898C236.35 82.1898 221.12 73.7498 206.52 77.9398C191.92 82.1298 183.48 97.3598 187.67 111.96C190.45 121.64 198.08 128.61 207.17 130.99L212.15 148.35C207.02 151.47 202.13 154.93 197.53 158.75C197.47 158.8 197.419 158.85 197.359 158.89C196.589 159.53 195.829 160.18 195.079 160.83C194.899 160.99 194.72 161.15 194.55 161.3C193.92 161.86 193.29 162.42 192.68 162.99C192.47 163.18 192.27 163.37 192.06 163.57C191.47 164.12 190.88 164.68 190.3 165.25C190.1 165.45 189.899 165.64 189.699 165.84C189.099 166.43 188.5 167.04 187.91 167.64C187.75 167.8 187.59 167.97 187.43 168.13C186.73 168.86 186.039 169.59 185.359 170.33C185.319 170.38 185.279 170.42 185.229 170.46C183.729 172.1 182.269 173.79 180.859 175.51C180.789 175.59 180.72 175.68 180.66 175.76C180.05 176.51 179.449 177.27 178.849 178.03C178.719 178.2 178.579 178.38 178.449 178.55C177.919 179.24 177.4 179.94 176.88 180.64C176.74 180.84 176.589 181.03 176.449 181.23C175.939 181.94 175.429 182.65 174.939 183.37C174.819 183.55 174.689 183.73 174.569 183.91C174.029 184.7 173.499 185.5 172.969 186.3C172.899 186.4 172.84 186.5 172.77 186.6C170.96 189.4 169.26 192.28 167.67 195.23C167.61 195.34 167.55 195.46 167.49 195.58C167.04 196.43 166.59 197.29 166.16 198.15C166.07 198.33 165.98 198.51 165.89 198.69C165.48 199.51 165.089 200.33 164.699 201.16C164.609 201.35 164.529 201.53 164.439 201.72C164.039 202.58 163.65 203.45 163.27 204.32C163.21 204.46 163.149 204.6 163.089 204.73C161.319 208.85 159.769 213.08 158.449 217.42C158.409 217.57 158.359 217.71 158.319 217.86C158.039 218.79 157.78 219.72 157.52 220.65C157.47 220.84 157.42 221.02 157.37 221.21C157.12 222.13 156.89 223.05 156.66 223.98C156.62 224.15 156.57 224.33 156.53 224.5C156.29 225.51 156.059 226.52 155.849 227.53C155.829 227.61 155.81 227.69 155.8 227.78C155.09 231.18 154.509 234.62 154.089 238.12C154.079 238.21 154.07 238.3 154.06 238.38C153.94 239.42 153.819 240.47 153.729 241.52C153.709 241.7 153.7 241.89 153.68 242.07C153.59 243.04 153.519 244.02 153.449 245C153.439 245.2 153.42 245.41 153.41 245.61C153.35 246.61 153.3 247.61 153.27 248.62C153.27 248.78 153.26 248.94 153.25 249.1C153.21 250.26 153.189 251.41 153.189 252.58V552.58H369.189V341.58L369.18 341.62Z" fill="white"/>
</mask>
<g mask="url(#mask1_2607_336)">
<path d="M360.641 152.81C360.641 152.81 350.811 180.56 334.591 185.95C316.361 192.01 300.391 184.19 294.191 185.61C280.011 188.85 269.551 205.1 246.991 208.33C201.531 214.83 193.261 191.55 188.871 173.84C179.711 136.89 152.341 43.28 229.401 45.12C417.141 49.61 360.631 152.81 360.631 152.81H360.641Z" fill="#E0AC5A"/>
<path d="M153.371 381.85C167.501 371.61 205.181 379.24 213.181 412.57C221.871 448.78 250.33 473 251.98 497.86C255.16 545.69 221.151 589.84 142.901 567.77C64.6505 545.69 123.601 403.43 153.371 381.85Z" fill="#E0AC5A"/>
</g>
<path d="M344.96 269.14C363.87 269.14 376.5 266.9 391.52 269.5C407.35 272.24 430.98 281.87 427.2 327.06C423.42 372.25 373.39 384.62 339.29 384.62C305.19 384.62 255.16 368.12 252.32 328.94C249.66 292.14 266.5 274.29 283.52 270.17C313.79 262.83 327.62 269.14 344.97 269.14H344.96Z" fill="#E0AC5A"/>
<path d="M348.089 282.46C362.059 282.46 371.399 280.82 382.509 282.72C394.209 284.72 411.679 291.74 408.879 324.7C406.089 357.66 369.109 366.68 343.899 366.68C318.689 366.68 281.709 354.65 279.619 326.07C277.649 299.23 290.099 286.22 302.679 283.21C325.059 277.86 335.279 282.46 348.099 282.46H348.089Z" fill="#E0AC5A"/>
<path d="M206.41 319.38C190.31 317.99 148.079 284.13 186.199 257.98C222.569 233.03 244.469 262.37 230.849 285.07C221.359 300.89 230.84 321.49 206.41 319.38Z" fill="#E0AC5A"/>
<path d="M267.69 435.01C269.48 425.8 279.18 414.62 296.57 409.86C309.61 406.29 326.41 401.96 334.11 405.75C348.94 413.04 367.75 436.34 335.17 472.63C302.6 508.92 263.92 454.42 267.68 435.02L267.69 435.01Z" fill="#E0AC5A"/>
<path d="M263.68 238.06C272.11 244.01 278.55 252.6 281.78 262.63C285.01 252.6 291.44 244.01 299.88 238.06C291.45 232.11 285.01 223.52 281.78 213.49C278.55 223.52 272.12 232.11 263.68 238.06Z" fill="#FFCD34" stroke="#321111" stroke-width="8" stroke-linecap="round" stroke-linejoin="round"/>
<path d="M328.99 238.06C337.42 244.01 343.86 252.6 347.09 262.63C350.32 252.6 356.75 244.01 365.19 238.06C356.76 232.11 350.32 223.52 347.09 213.49C343.86 223.52 337.43 232.11 328.99 238.06Z" fill="#FFCD34" stroke="#321111" stroke-width="8" stroke-linecap="round" stroke-linejoin="round"/>
<path d="M346.18 333.3C355.569 333.3 363.18 321.731 363.18 307.46C363.18 293.189 355.569 281.62 346.18 281.62C336.791 281.62 329.18 293.189 329.18 307.46C329.18 321.731 336.791 333.3 346.18 333.3Z" fill="#F16667" stroke="#321111" stroke-width="8" stroke-linecap="round" stroke-linejoin="round"/>
<path d="M337.181 285.27C337.181 285.27 322.051 300.52 345.341 300.52C368.631 300.52 355.181 285.27 355.181 285.27" fill="white"/>
<path d="M337.181 285.27C337.181 285.27 322.051 300.52 345.341 300.52C368.631 300.52 355.181 285.27 355.181 285.27" stroke="#321111" stroke-width="8" stroke-miterlimit="10" stroke-linecap="round"/>
<path d="M346.18 333.3C355.569 333.3 363.18 321.731 363.18 307.46C363.18 293.189 355.569 281.62 346.18 281.62C336.791 281.62 329.18 293.189 329.18 307.46C329.18 321.731 336.791 333.3 346.18 333.3Z" stroke="#321111" stroke-width="8" stroke-linecap="round" stroke-linejoin="round"/>
</g>
</svg>
